#!OML:ASF H:\Male1\Project 1\Capture day 1\Session 1\Male1.ASF
:FULLY-SPECIFIED
:DEGREES
362
root 10.5308 15.5722 1.70733 179.225 4.08456 -180.433
lowerback 5.66596 1.76468 -0.212308
upperback 3.11959 2.53403 -1.19934
thorax 0.0800094 1.35898 -1.24942
lowerneck -2.16029 10.88 13.5169
upperneck -1.90659 14.261 -12.5529
head 1.67185 6.99398 -5.39904
rclavicle 3.47873e-015 -7.95139e-015
rhumerus -35.5319 -1.89458 -85.0277
rradius 32.724
rwrist -19.5502
rhand -19.9753 1.1455
rfingers 7.12502
rthumb 6.36369 -28.7389
lclavicle 3.47873e-015 -7.95139e-015
lhumerus -27.5861 -4.15378 86.8875
lradius 30.6425
lwrist -1.3398
lhand -22.5874 11.5235
lfingers 7.12502
lthumb 3.84159 41.4686
rfemur -3.97257 19.2109 23.8585
rtibia 21.3235
rfoot -29.4416 -33.2113
rtoes -11.8885
lfemur -2.46134 -22.0695 -21.6457
ltibia 20.2356
lfoot -24.4143 28.9745
ltoes 5.59489
363
root 10.5322 15.5713 1.7082 179.163 4.06459 -180.434
lowerback 5.60889 1.76346 -0.258264
upperback 3.07856 2.52578 -1.18502
thorax 0.0667153 1.35212 -1.20739
lowerneck -2.13526 10.8729 13.5452
upperneck -1.72838 14.2686 -12.498
head 1.71857 7.00144 -5.38229
rclavicle -2.94201e-014 2.78299e-014
rhumerus -35.5481 -1.97663 -84.9829
rradius 32.6551
rwrist -19.475
rhand -19.9633 1.18525
rfingers 7.12502
rthumb 6.37522 -28.6988
lclavicle -2.94201e-014 2.78299e-014
lhumerus -27.7782 -6.4966 87.6462
lradius 31.4524
lwrist -1.05439
lhand -22.1521 11.2075
lfingers 7.12502
lthumb 4.26193 41.1446
rfemur -3.89349 19.1565 23.8846
rtibia 21.3126
rfoot -29.359 -33.2252
rtoes -12.0903
lfemur -2.41956 -22.0156 -21.6566
ltibia 20.2661
lfoot -24.3748 28.9244
ltoes 5.48437
364
root 10.5335 15.5702 1.70883 179.103 4.05772 -180.416
lowerback 5.55909 1.76506 -0.310476
upperback 3.03258 2.5203 -1.15276
thorax 0.0432722 1.34614 -1.14402
lowerneck -2.12262 10.8638 13.5673
upperneck -1.53112 14.273 -12.4229
head 1.77041 7.00714 -5.35764
rclavicle -2.28602e-014 9.54166e-015
rhumerus -35.5795 -1.98844 -84.9415
rradius 32.6172
rwrist -19.4518
rhand -19.9502 1.22743
rfingers 7.12502
rthumb 6.38791 -28.6562
lclavicle -2.28602e-014 9.54166e-015
lhumerus -28.0304 -8.27369 88.2636
lradius 32.339
lwrist -0.967528
lhand -21.5205 10.8106
lfingers 7.12502
lthumb 4.87174 40.7345
rfemur -3.80599 19.1156 23.9338
rtibia 21.2843
rfoot -29.2768 -33.2499
rtoes -12.3021
lfemur -2.38651 -21.9496 -21.6459
ltibia 20.3199
lfoot -24.3662 28.861
ltoes 5.4173
365
root 10.5348 15.5687 1.70943 179.046 4.06201 -180.371
lowerback 5.52396 1.76965 -0.346136
upperback 2.98136 2.51897 -1.10991
thorax 0.00659653 1.34216 -1.07998
lowerneck -2.12793 10.8541 13.5918
upperneck -1.31995 14.2747 -12.3358
head 1.82813 7.01107 -5.3286
rclavicle -1.90336e-014 -1.49089e-014
rhumerus -35.6259 -1.94041 -84.911
rradius 32.6164
rwrist -19.4677
rhand -19.9311 1.25199
rfingers 7.12502
rthumb 6.40631 -28.6311
lclavicle -1.90336e-014 -1.49089e-014
lhumerus -28.2915 -9.40071 88.6927
lradius 33.2535
lwrist -1.14075
lhand -20.6182 10.2932
lfingers 7.12502
lthumb 5.74302 40.1954
rfemur -3.71109 19.0718 24.013
rtibia 21.2347
rfoot -29.1717 -33.2845
rtoes -12.5518
lfemur -2.36641 -21.8663 -21.602
ltibia 20.4011
lfoot -24.3919 28.7712
ltoes 5.43423
366
root 10.5359 15.5671 1.71012 178.99 4.07656 -180.295
lowerback 5.50111 1.7788 -0.333721
upperback 2.93199 2.52628 -1.07257
thorax -0.0325741 1.34327 -1.04933
lowerneck -2.16153 10.8386 13.6353
upperneck -1.10574 14.2643 -12.2567
head 1.89182 7.00782 -5.30398
rclavicle -5.96354e-015 3.18055e-015
rhumerus -35.6748 -1.89293 -84.8918
rradius 32.646
rwrist -19.4806
rhand -19.8956 1.25721
rfingers 7.12502
rthumb 6.44064 -28.6249
lclavicle -5.96354e-015 3.18055e-015
lhumerus -28.4953 -9.83013 88.8786
lradius 34.1086
lwrist -1.65499
lhand -19.3989 9.51591
lfingers 7.12502
lthumb 6.92009 39.3828
rfemur -3.60824 19.0125 24.1209
rtibia 21.1613
rfoot -29.0429 -33.309
rtoes -12.792
lfemur -2.35913 -21.7695 -21.5244
ltibia 20.5095
lfoot -24.446 28.6604
ltoes 5.52491
367
root 10.5364 15.5654 1.71102 178.936 4.10281 -180.198
lowerback 5.4854 1.78781 -0.269305
upperback 2.89169 2.53688 -1.04923
thorax -0.0634912 1.34715 -1.06232
lowerneck -2.21461 10.8183 13.6811
upperneck -0.910985 14.2427 -12.1751
head 1.95151 6.99811 -5.2794
rclavicle -1.30701e-014 1.43125e-014
rhumerus -35.7118 -1.8645 -84.8879
rradius 32.6977
rwrist -19.4718
rhand -19.8429 1.25248
rfingers 7.12502
rthumb 6.49144 -28.628
lclavicle -1.30701e-014 1.43125e-014
lhumerus -28.6137 -9.65124 88.8446
lradius 34.8619
lwrist -2.30203
lhand -18.1109 8.60614
lfingers 7.12502
lthumb 8.16331 38.4285
rfemur -3.49785 18.9442 24.2472
rtibia 21.0648
rfoot -28.8872 -33.323
rtoes -13.0023
lfemur -2.36091 -21.6724 -21.4266
ltibia 20.6397
lfoot -24.5134 28.5562
ltoes 5.62192
